<?xml version="1.0" standalone="no"?>
<!DOCTYPE svg PUBLIC "-//W3C//DTD SVG 20010904//EN"
 "http://www.w3.org/TR/2001/REC-SVG-20010904/DTD/svg10.dtd">
<svg version="1.0" xmlns="http://www.w3.org/2000/svg"
 width="600.000000pt" height="600.000000pt" viewBox="0 0 600.000000 600.000000"
 preserveAspectRatio="xMidYMid meet">

<g transform="translate(0.000000,600.000000) scale(0.100000,-0.100000)"
fill="lavender" stroke="none">
<path d="M2364 5242 c-13 -8 -34 -46 -34 -61 0 -6 7 -11 15 -11 12 0 14 -7 9
-27 -6 -25 -5 -26 8 -15 13 11 17 9 22 -13 4 -14 2 -33 -3 -43 -6 -9 -11 -13
-11 -8 0 5 -9 -3 -20 -17 -21 -26 -27 -67 -10 -67 6 0 10 -10 10 -22 0 -27 19
-63 20 -38 1 11 4 10 15 -4 17 -22 20 -61 5 -51 -18 11 -11 -8 13 -33 15 -17
18 -26 9 -29 -6 -3 -9 -9 -6 -14 3 -6 -5 -7 -20 -3 -16 4 -26 2 -26 -5 0 -6
-5 -11 -11 -11 -12 0 -38 -29 -39 -42 0 -15 22 -8 39 13 10 13 30 22 51 23 30
2 35 6 33 24 -3 27 3 27 42 4 22 -13 45 -17 88 -14 31 2 57 8 57 13 0 5 17 9
38 9 34 1 36 2 15 13 -24 13 -82 85 -83 102 0 18 -50 108 -71 131 -12 13 -18
28 -14 34 4 7 -8 28 -30 50 -21 21 -34 43 -30 49 3 7 -8 25 -25 41 -34 32 -39
34 -56 22z m170 -358 c3 -8 2 -12 -4 -9 -6 3 -10 10 -10 16 0 14 7 11 14 -7z"/>
<path d="M4190 5213 c0 -3 8 -15 18 -26 16 -19 16 -19 -6 -13 -18 6 -22 4 -19
-12 2 -11 9 -28 17 -37 7 -9 15 -27 16 -41 1 -13 5 -33 9 -44 5 -14 2 -18 -7
-15 -11 5 -14 -8 -14 -55 -1 -33 1 -58 3 -56 7 6 63 -48 63 -61 0 -7 -7 -13
-16 -13 -11 0 -14 -5 -10 -16 3 -9 6 -19 7 -22 0 -4 4 2 9 13 7 18 9 18 20
-10 9 -23 9 -39 0 -68 -13 -44 -4 -67 15 -40 21 28 27 10 12 -35 -10 -29 -11
-42 -3 -45 8 -3 8 -8 -1 -18 -7 -8 -15 -30 -18 -49 -3 -18 -8 -37 -11 -42 -12
-19 -13 -53 -2 -59 9 -6 8 -12 -3 -26 -29 -33 -34 -47 -16 -40 10 3 17 2 17
-4 0 -6 -18 -18 -40 -26 -48 -19 -52 -33 -9 -33 24 0 30 -4 25 -15 -4 -11 0
-15 11 -13 12 2 18 -4 19 -17 1 -11 7 -31 12 -45 l11 -25 0 28 c1 16 5 26 11
22 6 -4 10 14 10 47 0 29 7 76 15 103 9 28 20 97 26 155 6 58 15 112 20 121 4
9 4 20 -1 25 -4 5 -11 34 -14 64 -11 116 -31 241 -38 235 -8 -8 -15 17 -23 88
-3 31 -11 57 -16 57 -6 0 -25 16 -43 35 -31 32 -56 45 -56 28z"/>
<path d="M4039 4928 c-1 -2 -3 -16 -5 -33 -2 -18 -14 -37 -30 -49 -25 -18 -25
-20 -8 -26 16 -6 15 -9 -13 -23 -18 -10 -40 -17 -49 -17 -13 0 -14 -3 -4 -15
7 -8 18 -15 25 -15 11 0 25 -20 25 -35 0 -2 -22 -17 -50 -34 -29 -18 -48 -36
-45 -43 3 -7 -8 -21 -25 -30 -35 -20 -40 -39 -7 -30 20 5 21 4 8 -11 -12 -15
-11 -17 13 -17 37 0 34 -27 -11 -80 -21 -24 -31 -40 -23 -35 10 6 9 2 -3 -12
-10 -11 -20 -31 -22 -44 -3 -13 -27 -46 -56 -73 l-51 -49 77 7 76 7 12 -31 13
-30 30 29 c26 26 31 28 46 14 14 -13 17 -12 23 6 3 12 10 21 15 21 5 0 12 9
15 20 8 24 25 27 25 4 0 -8 5 -12 10 -9 6 4 8 11 5 16 -7 10 54 90 103 134 32
29 46 71 42 128 0 9 -2 32 -3 51 -1 21 -6 32 -14 29 -17 -7 -27 35 -12 53 15
18 20 71 9 98 -7 19 -9 19 -15 4 -10 -25 -31 -22 -40 5 -4 12 -7 25 -6 28 0 4
-13 12 -29 19 -24 10 -30 19 -30 41 0 16 -4 29 -10 29 -5 0 -11 -1 -11 -2z"/>
<path d="M3690 4669 c-73 -74 -123 -118 -136 -118 -13 -1 -39 16 -63 40 -29
29 -41 36 -41 24 0 -9 23 -37 50 -63 28 -25 50 -52 50 -59 0 -7 7 -13 15 -13
9 0 18 -6 21 -14 3 -8 11 -13 18 -10 8 3 19 -12 30 -40 11 -30 22 -43 31 -40
10 4 11 12 4 33 -12 33 -7 94 8 113 6 7 14 31 18 53 4 26 22 58 52 92 36 43
71 111 60 118 -1 1 -54 -51 -117 -116z"/>
<path d="M2275 4690 c-10 -11 -13 -20 -7 -20 6 0 16 9 22 20 6 11 9 20 7 20
-2 0 -12 -9 -22 -20z"/>
<path d="M2647 4467 c-14 -19 -29 -51 -32 -71 -4 -21 -13 -43 -20 -49 -6 -6
-10 -19 -7 -29 2 -10 -1 -18 -7 -18 -6 0 -11 -14 -11 -31 0 -19 -4 -28 -11
-24 -7 5 -10 -7 -7 -36 2 -28 -1 -44 -9 -44 -6 0 -15 -3 -19 -7 -4 -5 -2 -8 4
-8 7 0 12 -8 13 -17 0 -14 2 -13 9 5 5 12 14 22 20 22 6 0 8 10 4 25 -4 15 -2
25 5 25 6 0 11 12 11 26 0 15 10 36 23 48 14 13 28 44 36 79 7 34 18 57 26 57
17 0 26 26 19 56 -8 32 -17 30 -47 -9z"/>
<path d="M2222 4279 c-12 -11 -22 -24 -22 -29 0 -6 -7 -10 -14 -10 -8 0 -21
-12 -28 -26 -7 -15 -16 -25 -19 -23 -4 2 -15 -3 -25 -12 -11 -9 -38 -19 -62
-22 -50 -6 -73 -24 -102 -79 -24 -46 -24 -48 -5 -48 8 0 27 14 42 30 32 36 52
40 25 5 -43 -55 -34 -144 20 -202 25 -27 13 -29 -40 -7 -45 17 -62 47 -62 107
-1 39 -2 41 -15 23 -43 -57 17 -186 87 -186 73 0 141 51 191 143 17 31 35 57
40 57 4 0 5 5 2 10 -4 6 4 25 18 43 21 29 24 41 22 118 -1 58 -6 92 -16 107
l-16 22 -21 -21z m-152 -229 c0 -5 -9 -14 -20 -20 -15 -8 -20 -8 -20 3 0 8 3
17 7 20 10 10 33 8 33 -3z m90 -24 c0 -8 -7 -16 -15 -20 -10 -4 -15 1 -15 14
0 11 7 20 15 20 8 0 15 -6 15 -14z"/>
<path d="M4174 4226 c-26 -22 -27 -24 -7 -19 24 6 49 30 41 39 -3 3 -19 -6
-34 -20z"/>
<path d="M4160 4139 c0 -7 -10 -9 -27 -5 l-28 6 22 -18 c16 -14 19 -22 11 -30
-8 -8 -8 -15 1 -26 12 -14 16 -14 37 2 29 21 31 53 4 70 -14 8 -20 9 -20 1z"/>
<path d="M4275 4080 c3 -5 14 -10 23 -10 15 0 15 2 2 10 -20 13 -33 13 -25 0z"/>
<path d="M4230 4041 c-71 -46 -96 -91 -50 -91 12 0 29 -17 46 -46 26 -44 28
-45 36 -24 5 13 6 25 3 28 -3 3 5 16 17 29 17 19 19 23 5 17 -13 -5 -17 -1
-17 20 0 16 -5 24 -12 21 -7 -3 -20 0 -28 5 -13 9 -11 13 9 30 30 26 24 33 -9
11z"/>
<path d="M2965 3957 c-22 -12 -72 -43 -112 -70 -69 -46 -74 -47 -115 -37 -24
5 -55 10 -70 10 -24 0 -28 -4 -28 -27 0 -22 -2 -25 -10 -13 -8 13 -10 13 -10
-2 0 -10 9 -22 20 -28 11 -6 20 -17 20 -25 0 -8 9 -15 20 -15 11 0 20 4 20 9
0 5 18 -8 40 -30 22 -22 40 -46 40 -53 0 -19 147 -58 241 -64 59 -3 83 -1 110
13 39 21 156 123 164 144 13 33 -97 151 -172 186 -67 30 -105 31 -158 2z m69
-72 c22 -16 14 -51 -9 -41 -8 3 -21 8 -28 11 -18 8 -37 -36 -37 -83 0 -21 9
-54 20 -75 25 -47 25 -47 -6 -47 -39 0 -61 16 -90 65 l-26 45 22 45 c39 81
106 116 154 80z m-294 -69 c0 -2 -7 -9 -15 -16 -13 -11 -14 -10 -9 4 5 14 24
23 24 12z m328 -173 c-10 -2 -28 -2 -40 0 -13 2 -5 4 17 4 22 1 32 -1 23 -4z"/>
<path d="M1834 3539 c-23 -5 -60 -25 -82 -45 -81 -69 -75 -160 13 -200 l30
-13 -39 2 c-45 2 -53 -9 -37 -54 5 -16 6 -27 1 -24 -5 3 -11 1 -15 -5 -3 -5 9
-16 27 -24 18 -8 27 -15 21 -15 -7 -1 -13 -8 -13 -17 0 -10 6 -14 15 -10 10 4
15 -1 15 -14 0 -14 6 -19 26 -17 23 2 27 -2 30 -35 2 -28 -1 -38 -11 -38 -8 0
-15 -7 -15 -15 0 -8 7 -15 15 -15 8 0 15 7 15 15 0 8 8 15 18 15 10 0 24 6 31
13 11 10 14 10 18 0 7 -18 33 -16 33 2 0 18 12 19 27 4 11 -11 36 -4 30 9 -2
4 7 18 20 31 13 13 23 19 23 13 0 -6 -5 -14 -10 -17 -16 -10 0 -27 21 -22 11
3 19 1 19 -4 0 -9 -7 -11 -45 -13 -11 -1 -21 -9 -23 -19 -3 -13 2 -18 15 -16
10 1 26 -1 36 -6 22 -9 30 -2 32 28 2 18 7 21 30 19 19 -2 26 1 22 10 -2 7
-12 12 -21 12 -17 -2 -22 21 -6 31 20 12 10 27 -15 23 -14 -3 -25 -1 -25 3 0
5 9 9 20 9 11 0 23 7 26 15 10 25 21 17 19 -15 -1 -17 1 -32 4 -34 3 -2 31 0
61 4 l55 7 -51 2 c-48 1 -52 3 -50 26 1 20 5 23 24 18 16 -4 22 -1 22 10 0 22
-20 32 -31 16 -7 -11 -9 -11 -9 -1 0 7 6 15 14 18 23 9 84 107 94 152 8 36 7
46 -10 67 -65 83 -288 145 -414 114z m241 -439 c3 -5 -1 -10 -9 -10 -8 0 -18
5 -21 10 -3 6 1 10 9 10 8 0 18 -4 21 -10z m-208 -36 c-3 -3 -12 -4 -19 -1 -8
3 -5 6 6 6 11 1 17 -2 13 -5z"/>
<path d="M2760 3505 c-14 -8 -20 -14 -15 -14 6 0 21 6 35 14 14 8 21 14 15 14
-5 0 -21 -6 -35 -14z"/>
<path d="M2500 3345 c-11 -13 -10 -14 4 -9 9 3 16 10 16 15 0 13 -6 11 -20 -6z"/>
<path d="M2454 3314 c-18 -14 -18 -15 4 -4 12 6 22 13 22 15 0 8 -5 6 -26 -11z"/>
<path d="M1328 3273 c6 -2 18 -2 25 0 6 3 1 5 -13 5 -14 0 -19 -2 -12 -5z"/>
<path d="M1668 3123 c7 -3 16 -2 19 1 4 3 -2 6 -13 5 -11 0 -14 -3 -6 -6z"/>
<path d="M1675 3103 c-11 -3 -24 -10 -30 -15 -7 -8 -4 -9 8 -4 10 3 27 6 38 6
10 0 19 5 19 10 0 10 -3 11 -35 3z"/>
<path d="M1785 3080 c-4 -6 -3 -16 3 -22 6 -6 12 -6 17 2 4 6 3 16 -3 22 -6 6
-12 6 -17 -2z"/>
<path d="M2165 3081 c-3 -5 -1 -12 5 -16 12 -7 30 2 30 16 0 12 -27 12 -35 0z"/>
<path d="M1680 3055 c-14 -16 -10 -18 14 -9 9 3 16 10 16 15 0 14 -16 11 -30
-6z"/>
<path d="M1730 3035 c0 -8 7 -15 15 -15 8 0 15 7 15 15 0 8 -7 15 -15 15 -8 0
-15 -7 -15 -15z"/>
<path d="M2670 3030 c34 -11 60 -11 35 0 -11 5 -29 8 -40 8 -16 0 -15 -2 5 -8z"/>
<path d="M1872 3019 c2 -6 8 -10 13 -10 5 0 11 4 13 10 2 6 -4 11 -13 11 -9 0
-15 -5 -13 -11z"/>
<path d="M1940 3015 c0 -8 7 -15 15 -15 8 0 15 7 15 15 0 8 -7 15 -15 15 -8 0
-15 -7 -15 -15z"/>
<path d="M2290 3020 c0 -5 5 -10 11 -10 5 0 7 5 4 10 -3 6 -8 10 -11 10 -2 0
-4 -4 -4 -10z"/>
<path d="M2117 3009 c-21 -12 -13 -29 13 -29 24 0 33 15 17 28 -8 7 -18 7 -30
1z"/>
<path d="M2200 3010 c0 -5 5 -10 10 -10 6 0 10 5 10 10 0 6 -4 10 -10 10 -5 0
-10 -4 -10 -10z"/>
<path d="M2745 3010 c27 -12 43 -12 25 0 -8 5 -22 9 -30 9 -10 0 -8 -3 5 -9z"/>
<path d="M2487 2989 c7 -7 15 -10 18 -7 3 3 -2 9 -12 12 -14 6 -15 5 -6 -5z"/>
<path d="M1767 2941 c-7 -8 -11 -34 -10 -57 1 -37 8 -50 39 -79 21 -20 45 -35
53 -34 9 1 33 -5 53 -15 21 -9 44 -16 52 -16 7 0 16 -7 19 -14 6 -16 61 -17
84 -3 6 4 14 3 18 -2 3 -6 27 -7 55 -4 32 4 55 1 64 -6 14 -11 49 -20 103 -25
13 -2 25 -5 28 -8 8 -8 55 3 55 12 0 12 59 40 85 40 11 0 27 -6 34 -12 11 -10
13 -10 7 0 -5 8 3 12 28 12 19 0 47 5 62 10 21 8 30 8 37 -2 6 -9 7 -8 3 5 -4
13 0 17 18 17 13 0 29 7 36 15 6 7 32 17 56 21 33 5 44 11 44 24 0 13 -9 20
-27 22 -26 3 -36 0 -85 -23 -9 -5 -45 -8 -80 -7 -73 1 -148 -10 -148 -22 0 -5
-14 -12 -31 -15 -24 -6 -47 0 -93 20 -34 15 -74 34 -91 41 -16 7 -51 22 -77
33 -26 12 -57 21 -69 21 -11 0 -45 12 -76 26 -69 33 -226 49 -246 25z"/>
<path d="M2236 2940 c3 -14 10 -32 15 -40 7 -13 8 -13 8 0 0 8 -6 26 -15 40
l-15 25 7 -25z"/>
<path d="M2510 2906 c0 -2 8 -10 18 -17 15 -13 16 -12 3 4 -13 16 -21 21 -21
13z"/>
<path d="M4488 2798 c-8 -7 -22 -24 -32 -38 -9 -13 -16 -18 -16 -11 0 15 -33
-24 -43 -52 -4 -9 -12 -19 -19 -21 -7 -2 -35 -10 -63 -17 l-50 -14 40 -5 40
-6 -38 -19 c-26 -13 -33 -21 -25 -27 10 -6 7 -13 -11 -27 -18 -14 -20 -20 -10
-23 9 -3 0 -11 -22 -21 -20 -8 -40 -21 -44 -28 -6 -8 -4 -10 4 -4 9 5 12 2 9
-11 -2 -10 -19 -29 -38 -41 -19 -12 -40 -27 -47 -33 -7 -5 -17 -10 -22 -10 -5
0 -19 -13 -31 -29 -11 -17 -31 -33 -43 -37 -21 -7 -21 -7 -3 -14 28 -9 28 -37
0 -59 -26 -20 -30 -31 -13 -31 17 0 41 -29 34 -42 -4 -7 10 5 29 26 20 22 36
36 36 31 0 -4 6 -2 13 4 21 17 28 1 11 -25 -9 -12 -15 -24 -14 -26 5 -10 -18
-70 -43 -113 -16 -27 -28 -52 -27 -54 2 -2 -19 -27 -46 -55 -27 -27 -41 -44
-32 -37 9 7 21 10 27 7 5 -3 32 15 60 40 28 25 55 43 60 40 11 -7 64 51 86 94
9 16 21 29 27 27 7 -1 23 28 36 65 16 44 31 69 43 73 10 4 19 15 19 25 0 10 5
22 10 25 6 4 8 15 5 26 -4 11 2 27 14 41 14 15 17 24 10 29 -7 4 -8 12 -3 20
5 9 -1 8 -19 -4 -27 -17 -27 -17 -27 7 0 24 64 111 82 111 15 0 28 29 16 36
-8 5 -3 21 16 49 15 23 30 39 34 36 5 -6 51 107 52 127 0 11 -14 9 -32 -5z"/>
<path d="M1748 2194 c15 -24 32 -44 39 -44 6 0 20 -10 30 -23 10 -13 26 -26
36 -30 9 -3 17 -11 17 -17 0 -18 34 -50 66 -60 18 -6 39 -22 48 -35 11 -16 22
-22 36 -18 13 4 39 -7 75 -31 52 -35 75 -66 38 -51 -11 3 -4 -8 15 -27 35 -37
43 -64 15 -54 -11 4 -8 -2 8 -16 15 -13 29 -31 32 -40 3 -9 15 -22 27 -28 20
-11 21 -10 11 9 -15 28 -14 44 4 37 13 -5 14 -2 4 15 -20 38 -4 29 51 -26 30
-30 50 -55 45 -55 -5 0 7 -11 28 -25 39 -27 43 -36 28 -63 -9 -18 9 -125 27
-157 9 -16 11 -15 28 11 11 16 27 39 38 51 10 11 18 24 17 27 -1 4 6 21 15 39
l17 32 -22 -19 c-38 -34 -33 -11 14 65 25 40 45 79 45 86 0 7 4 13 8 13 17 0
21 -12 12 -36 -7 -16 -6 -24 1 -24 7 0 9 -12 7 -30 -6 -41 6 -38 19 5 6 19 7
33 2 29 -19 -11 -8 35 16 70 14 20 25 41 25 47 0 6 12 9 28 8 43 -3 62 0 62
11 0 7 -7 7 -21 0 -36 -20 -35 0 1 30 37 30 77 43 86 29 9 -16 25 -10 57 23
33 33 60 53 87 63 9 4 20 16 25 28 6 12 19 23 30 25 11 2 31 12 45 23 l25 20
-32 -15 c-17 -9 -70 -19 -117 -22 -53 -4 -90 -12 -97 -20 -14 -17 -43 -19 -33
-3 7 13 -69 3 -98 -12 -9 -5 -26 -9 -37 -9 -12 0 -21 -4 -21 -10 0 -14 -37
-13 -42 2 -3 8 -12 9 -37 0 -27 -9 -36 -9 -48 3 -17 18 -54 20 -71 3 -16 -16
-208 -20 -225 -5 -6 7 -41 12 -77 13 -47 0 -76 6 -105 22 -22 12 -45 22 -52
22 -19 0 -93 41 -93 51 0 5 -9 9 -20 9 -11 0 -20 7 -20 15 0 8 -5 15 -10 15
-6 0 -32 21 -59 48 -64 62 -89 65 -53 6z"/>
</g>
</svg>
